<svg width="40" height="40" viewBox="0 0 40 40" fill="none" xmlns="http://www.w3.org/2000/svg">
<path d="M2.86986 11.7088C3.22068 12.0596 3.7755 12.0812 4.15186 11.7743L4.22485 11.7088L11.7101 4.22354L11.7756 4.15055C12.0824 3.77418 12.0608 3.21932 11.7101 2.86854C11.3593 2.51777 10.8044 2.4962 10.4281 2.80304L10.3551 2.86854L2.86986 10.3538L2.80436 10.4267C2.49739 10.8031 2.51904 11.3579 2.86986 11.7088Z" fill="#2B2B2B"/>
<path d="M33.6297 34.984C34.0038 35.3582 34.6104 35.3581 34.9847 34.984C35.3589 34.6098 35.3589 34.0033 34.9847 33.6291L7.96714 6.61153C7.59293 6.23732 6.98636 6.23732 6.61215 6.61153C6.23804 6.98575 6.23797 7.59235 6.61215 7.96653L33.6297 34.984Z" fill="#2B2B2B"/>
<path d="M30.1329 8.735C30.5071 9.10919 31.1137 9.10914 31.4879 8.735C31.8621 8.36079 31.8621 7.75422 31.4879 7.38001L28.3119 4.20401C27.9377 3.8298 27.3311 3.8298 26.9569 4.20401C26.5828 4.57823 26.5827 5.18481 26.9569 5.559L30.1329 8.735Z" fill="#219EBC"/>
<path d="M26.3897 12.4772C26.7639 12.8514 27.3705 12.8513 27.7447 12.4772C28.1189 12.103 28.1189 11.4964 27.7447 11.1222L24.5687 7.9462C24.1945 7.57199 23.5879 7.57199 23.2137 7.9462C22.8396 8.32041 22.8395 8.927 23.2137 9.30119L26.3897 12.4772Z" fill="#219EBC"/>
<path d="M11.1222 27.7457C11.4963 28.1199 12.1029 28.1199 12.4771 27.7457C12.8514 27.3715 12.8514 26.765 12.4771 26.3908L9.30114 23.2148C8.92693 22.8405 8.32036 22.8405 7.94615 23.2148C7.57201 23.589 7.57196 24.1956 7.94615 24.5697L11.1222 27.7457Z" fill="#219EBC"/>
<path d="M38.7206 10.0859C38.9004 9.90591 39.0017 9.66103 39.0013 9.40658C39.0008 9.15229 38.8989 8.90845 38.7187 8.72908L31.2316 1.27942C30.8571 0.906812 30.2511 0.907746 29.8775 1.28129L19.323 11.8358L19.2575 11.9088C18.9504 12.2851 18.9723 12.8399 19.323 13.1908C19.6737 13.5416 20.2286 13.564 20.605 13.2573L20.678 13.1908L30.556 3.31285L36.6853 9.41126L26.797 19.3108L28.1529 20.6657L38.7206 10.0859ZM26.7979 20.6657C27.1723 21.0397 27.7789 21.0399 28.1529 20.6657L26.797 19.3108C26.4231 19.6851 26.4237 20.2917 26.7979 20.6657Z" fill="#219EBC"/>
<path d="M9.44431 38.999C9.69839 38.9989 9.94218 38.898 10.1218 38.7183L20.6829 28.145L20.0045 27.4685L19.327 26.791L9.44338 36.6858L3.31409 30.5556L13.1986 20.6711L13.2641 20.5981C13.571 20.2217 13.5494 19.6669 13.1986 19.3161C12.8478 18.9653 12.293 18.9437 11.9166 19.2506L11.8436 19.3161L1.2816 29.8781C0.907413 30.2523 0.907457 30.8589 1.2816 31.2331L8.76682 38.7183L8.837 38.7819C9.00755 38.9217 9.22191 38.9991 9.44431 38.999ZM20.6829 28.145C21.0566 27.7706 21.0563 27.164 20.682 26.79C20.3076 26.4161 19.701 26.4167 19.327 26.791L20.6829 28.145Z" fill="#219EBC"/>
<path d="M7.37899 31.4889C7.75317 31.8631 8.35976 31.863 8.73398 31.4889C9.10819 31.1147 9.10819 30.5081 8.73398 30.1339L5.55798 26.9579C5.18377 26.5837 4.5772 26.5837 4.20299 26.9579C3.82885 27.3321 3.8288 27.9387 4.20299 28.3129L7.37899 31.4889Z" fill="#219EBC"/>
<path d="M30.593 39C30.8474 38.9995 31.0911 38.8977 31.2705 38.7174L38.7202 31.2303C39.0928 30.8558 39.0918 30.2507 38.7183 29.8772L11.7101 2.86903C11.5709 2.72978 11.3922 2.63637 11.1983 2.60233L2.12411 1.01433C1.81656 0.960511 1.50174 1.06024 1.28098 1.28103C1.0604 1.50175 0.960535 1.81583 1.01429 2.12322L2.60416 11.1964L2.63972 11.3387C2.68679 11.4777 2.76609 11.6046 2.87085 11.7092L29.9146 38.7202L29.9848 38.7838C30.1555 38.9234 30.3705 39.0003 30.593 39ZM4.4392 10.5676L3.13755 3.13759L10.5685 4.43831L36.6867 30.5566L30.5893 36.6858L4.4392 10.5676Z" fill="#2B2B2B"/>
</svg>
